:SAMPLES-PER-SECOND 30
:FULLY-SPECIFIED
:DEGREES
365
root  -10.6388 33.7959 8.22955 8.72571 -34.2367 3.69177
RightUpLeg  -18.8588 -7.6918 8.78795
RightLeg  23.7412 -4.65733 -1.70177
RightFoot  -11.6198 0.0643044 1.20351
RightToes  5.85881 0.0117267 0.056084
Spine  -0.296551 -2.68165 -0.776201
Spine1  -0.576919 -5.33321 -0.877234
HEad  -66.9726 -3.09602 4.0767
LeftShoulder1  -1.94126e-019 -3.10601e-018 -2.51263e-017
LeftArm  -12.0313 11.8349 -67.85
LeftForeArm  30.8161 -28.6856 -4.51211
LeftHand  -0.718089 -3.9714 9.16735
RightShoulder  -4.96962e-017 0 -2.36833e-017
RightArm  -50.4896 -25.5317 59.907
RightForeArm  61.9716 39.4395 5.54057
RightHand  -0.440937 2.65335 -6.57466
LeftUpLeg  -17.1353 12.9893 5.04162
LeftLeg  51.7341 11.2204 12.2069
LeftFoot  23.3573 -1.39802 6.91752
LeftToes  -43.119 1.70063e-006 7.6642e-008
366
root  -11.0411 34.1138 8.84879 8.74646 -38.7246 4.47008
RightUpLeg  -15.8771 -2.21378 7.47968
RightLeg  19.3937 -5.81647 -1.6336
RightFoot  -9.43505 0.0510364 1.19742
RightToes  5.09646 0.0106144 0.0487226
Spine  -0.402796 -1.98152 -0.964157
Spine1  -0.806749 -3.93623 -1.23242
HEad  -67.4886 -3.17921 5.65255
LeftShoulder1  -1.94126e-019 -3.10601e-018 -2.51263e-017
LeftArm  -10.7376 16.1715 -68.9978
LeftForeArm  35.7617 -23.8181 -3.65917
LeftHand  -0.743121 -4.59339 8.92165
RightShoulder  -4.96962e-017 0 -2.36833e-017
RightArm  -39.3735 -19.6636 61.4968
RightForeArm  57.7985 25.4042 2.54778
RightHand  -0.236787 2.39138 -3.73162
LeftUpLeg  -18.5431 10.1283 4.57754
LeftLeg  48.293 16.0819 15.2764
LeftFoot  20.3192 -1.45036 8.24213
LeftToes  -40.0637 1.70063e-006 7.6642e-008
367
root  -11.4501 34.3444 9.48399 8.52655 -43.0108 5.26097
RightUpLeg  -12.9075 2.34792 6.3251
RightLeg  15.145 -6.54877 -1.32358
RightFoot  -7.62883 0.0336854 1.08924
RightToes  5.54064 0.00951523 0.0530097
Spine  -0.425275 -1.32645 -1.09692
Spine1  -0.872568 -2.61146 -1.5083
HEad  -67.6527 -3.22717 6.78398
LeftShoulder1  -1.94126e-019 -3.10601e-018 -2.51263e-017
LeftArm  -10.799 20.9186 -70.6744
LeftForeArm  38.9291 -20.1052 -3.14688
LeftHand  -0.705639 -5.29924 7.96538
RightShoulder  -4.96962e-017 0 -2.36833e-017
RightArm  -28.2639 -13.9902 63.7221
RightForeArm  54.9912 12.9955 1.44578
RightHand  -0.0585159 2.32506 -1.07267
LeftUpLeg  -19.9339 6.93175 4.59351
LeftLeg  44.4648 20.4154 16.7405
LeftFoot  15.0525 -0.969728 7.4916
LeftToes  -32.8364 1.70063e-006 7.6642e-008
368
root  -11.8611 34.4773 10.1035 8.63255 -46.9928 5.72861
RightUpLeg  -10.547 5.44217 5.47801
RightLeg  11.6482 -5.92667 -0.825995
RightFoot  -6.01135 0.0121499 0.812966
RightToes  4.96992 0.00838048 0.0475023
Spine  -0.431825 -0.601135 -1.10411
Spine1  -0.918366 -1.11445 -1.56632
HEad  -67.5782 -3.60005 7.60838
LeftShoulder1  -1.94126e-019 -3.10601e-018 -2.51263e-017
LeftArm  -13.6194 25.6415 -72.9713
LeftForeArm  38.4643 -18.0976 -2.84353
LeftHand  -0.654906 -5.14132 7.51902
RightShoulder  -4.96962e-017 0 -2.36833e-017
RightArm  -25.9588 -10.4487 67.1235
RightForeArm  64.3465 9.03749 1.48811
RightHand  0.132366 3.26318 1.53787
LeftUpLeg  -21.7973 3.40086 5.3116
LeftLeg  39.867 22.7574 15.7938
LeftFoot  11.7444 -0.625118 6.23395
LeftToes  -26.8404 1.70063e-006 7.6642e-008
369
root  -12.2747 34.5508 10.6948 9.10638 -50.7087 5.85504
RightUpLeg  -8.79079 7.6234 4.86028
RightLeg  8.93694 -4.63081 -0.423663
RightFoot  -4.65433 -0.000859478 0.555325
RightToes  3.97733 0.00716205 0.0379465
Spine  -0.489454 0.195663 -1.17017
Spine1  -1.04417 0.512424 -1.69693
HEad  -67.6733 -4.45363 9.22308
LeftShoulder1  -1.94126e-019 -3.10601e-018 -2.51263e-017
LeftArm  -17.2208 30.3424 -75.4254
LeftForeArm  36.3158 -17.4686 -2.70964
LeftHand  -0.672236 -4.61509 8.08447
RightShoulder  -4.96962e-017 0 -2.36833e-017
RightArm  -26.9897 -8.09946 71.2017
RightForeArm  71.9953 7.37124 1.23452
RightHand  0.0204065 1.37693 0.222122
LeftUpLeg  -24.2193 -0.247897 6.62668
LeftLeg  34.636 22.0802 12.7004
LeftFoot  10.7177 -0.47435 5.21521
LeftToes  -26.037 1.70063e-006 7.6642e-008
370
root  -12.6694 34.5762 11.2704 9.32159 -53.8392 6.29636
RightUpLeg  -7.95017 8.78885 4.05028
RightLeg  7.904 -2.99577 -0.219578
RightFoot  -4.32759 -0.00630942 0.400971
RightToes  3.63445 0.00581184 0.0346527
Spine  -0.571118 0.653674 -1.30329
Spine1  -1.19943 1.4563 -1.95017
HEad  -67.9867 -5.11549 11.1393
LeftShoulder1  -1.94126e-019 -3.10601e-018 -2.51263e-017
LeftArm  -21.3198 34.9659 -78.1044
LeftForeArm  32.4949 -17.3044 -2.5984
LeftHand  -0.668126 -3.88365 8.62572
RightShoulder  -4.96962e-017 0 -2.36833e-017
RightArm  -27.0455 -6.78428 75.1056
RightForeArm  76.6201 8.45473 1.40421
RightHand  -0.0926062 1.21468 -1.75007
LeftUpLeg  -26.963 -3.71976 7.91173
LeftLeg  28.8506 18.5821 8.51208
LeftFoot  10.1149 -0.332317 3.91527
LeftToes  -26.8728 1.70063e-006 7.6642e-008
371
root  -13.0675 34.5683 11.8505 8.85551 -56.3246 7.24849
RightUpLeg  -7.61995 9.92749 3.00648
RightLeg  8.45519 -1.94841 -0.161367
RightFoot  -4.77127 -0.00928193 0.338213
RightToes  2.27505 0.00428123 0.0216332
Spine  -0.523441 0.834218 -1.50652
Spine1  -1.08602 1.84007 -2.35075
HEad  -68.6679 -5.94014 12.8629
LeftShoulder1  -1.94126e-019 -3.10601e-018 -2.51263e-017
LeftArm  -24.4556 38.5026 -80.7605
LeftForeArm  29.6701 -16.7079 -2.4661
LeftHand  -0.653257 -3.4862 8.79281
RightShoulder  -4.96962e-017 0 -2.36833e-017
RightArm  -21.0526 -6.70043 78.3282
RightForeArm  71.6772 12.9686 1.57241
RightHand  -0.275722 1.9124 -4.55735
LeftUpLeg  -29.7403 -6.43775 8.71784
LeftLeg  23.3551 13.1501 4.64675
LeftFoot  9.94563 -0.215162 2.634
LeftToes  -27.877 1.70063e-006 7.6642e-008
372
root  -13.5259 34.5096 12.4814 7.96973 -58.096 8.00925
RightUpLeg  -7.18078 10.9824 2.25324
RightLeg  10.2217 -1.49394 -0.17013
RightFoot  -5.91554 -0.0117168 0.329381
RightToes  1.05027 0.00252227 0.00996104
Spine  -0.230424 1.00784 -1.64128
Spine1  -0.511852 2.256 -2.67115
HEad  -69.5904 -7.53255 14.4062
LeftShoulder1  -1.94126e-019 -3.10601e-018 -2.51263e-017
LeftArm  -25.6245 40.6135 -82.898
LeftForeArm  29.6388 -16.1758 -2.38114
LeftHand  -0.630968 -3.55855 8.43804
RightShoulder  -4.96962e-017 0 -2.36833e-017
RightArm  -10.7421 -8.30838 79.9354
RightForeArm  60.7081 21.6806 1.7202
RightHand  -0.398307 2.10349 -6.3554
LeftUpLeg  -31.8199 -7.73467 8.64637
LeftLeg  18.7478 6.85806 1.83835
LeftFoot  10.1654 -0.113754 1.44043
LeftToes  -31.7094 1.70063e-006 7.6642e-008
373
root  -14.0707 34.4131 13.1704 7.07288 -59.4617 8.49335
RightUpLeg  -6.59474 11.4383 1.75163
RightLeg  12.537 -0.853087 -0.132216
RightFoot  -7.37025 -0.017209 0.283443
RightToes  0.0164791 4.10094e-005 0.00015593
Spine  0.0499751 1.2132 -1.74402
Spine1  0.0358342 2.73525 -2.92027
HEad  -70.3702 -10.0644 15.6731
LeftShoulder1  -1.94126e-019 -3.10601e-018 -2.51263e-017
LeftArm  -25.0547 41.7913 -84.1221
LeftForeArm  31.4313 -15.4278 -2.26704
LeftHand  -0.600382 -3.9466 7.73169
RightShoulder  -4.96962e-017 0 -2.36833e-017
RightArm  -4.52733 -10.3357 79.8468
RightForeArm  55.1501 30.8046 3.77504
RightHand  -0.508645 1.12028 -9.19672
LeftUpLeg  -33.0888 -7.38207 7.36144
LeftLeg  15.2775 1.19602 0.243205
LeftFoot  10.9672 -0.0247456 0.419279
LeftToes  -38.4019 1.70063e-006 7.6642e-008
374
root  -14.6688 34.2371 13.9125 5.7605 -60.9468 9.38753
RightUpLeg  -6.70837 10.7682 0.907097
RightLeg  16.5299 1.03069 0.234489
RightFoot  -9.37109 -0.044178 -0.000723924
RightToes  -2.69946 -0.00731646 -0.0253745
Spine  0.149508 1.38304 -1.96022
Spine1  0.224269 3.07163 -3.34178
HEad  -70.3662 -13.0279 16.4342
LeftShoulder1  -1.94126e-019 -3.10601e-018 -2.51263e-017
LeftArm  -23.614 43.1022 -84.4402
LeftForeArm  33.2987 -15.6584 -2.27938
LeftHand  -0.510738 -4.65255 6.19464
RightShoulder  -4.96962e-017 0 -2.36833e-017
RightArm  0.939413 -12.2496 79.2247
RightForeArm  52.9757 39.4175 5.96117
RightHand  -0.535687 0.491619 -10.6557
LeftUpLeg  -33.8778 -5.78027 4.6983
LeftLeg  13.4858 -2.07698 -0.360751
LeftFoot  11.8768 0.0419911 -0.242187
LeftToes  -42.9826 1.70063e-006 7.6642e-008
375
root  -15.3522 33.9289 14.6772 4.08049 -62.8207 10.3181
RightUpLeg  -7.45765 9.76888 0.0155029
RightLeg  22.5764 3.35075 1.14249
RightFoot  -11.6483 -0.108733 -0.542636
RightToes  -6.54419 -0.0197817 -0.0608575
Spine  0.309354 1.51644 -2.2336
Spine1  0.531691 3.29104 -3.84671
HEad  -70.4935 -15.6383 17.0188
LeftShoulder1  -1.94126e-019 -3.10601e-018 -2.51263e-017
LeftArm  -21.5257 44.5331 -84.0718
LeftForeArm  33.337 -17.086 -2.44421
LeftHand  -0.472657 -4.903 5.62935
RightShoulder  -4.96962e-017 0 -2.36833e-017
RightArm  5.8947 -13.2893 78.3696
RightForeArm  52.9321 46.748 8.19399
RightHand  -0.51342 1.00014 -9.44609
LeftUpLeg  -34.1995 -5.07813 2.4971
LeftLeg  13.8046 -3.13014 -0.560527
LeftFoot  12.2606 0.069468 -0.485286
LeftToes  -46.218 1.70063e-006 7.6642e-008
376
root  -16.0922 33.5124 15.5208 0.533981 -64.9848 12.8462
RightUpLeg  -8.7586 7.00533 -1.96407
RightLeg  30.6289 6.79331 3.43157
RightFoot  -13.2077 -0.240759 -1.57958
RightToes  -14.7762 -0.0542921 -0.133553
Spine  0.540093 1.59253 -2.68636
Spine1  0.964733 3.44005 -4.73602
HEad  -71.3712 -17.7356 17.6636
LeftShoulder1  -1.94126e-019 -3.10601e-018 -2.51263e-017
LeftArm  -19.5915 45.5943 -83.2303
LeftForeArm  32.4699 -18.3845 -2.60752
LeftHand  -0.509063 -4.65876 6.17185
RightShoulder  -4.96962e-017 0 -2.36833e-017
RightArm  10.6077 -13.2226 77.5454
RightForeArm  53.6888 51.934 10.1344
RightHand  -0.539733 1.80033 -8.87943
LeftUpLeg  -33.7709 -7.22844 1.26283
LeftLeg  15.6355 -4.15693 -0.881475
LeftFoot  15.0484 0.141344 -0.908597
LeftToes  -43.9792 1.70063e-006 7.6642e-008
377
root  -16.8196 33.024 16.4375 -5.66649 -67.2917 18.2385
RightUpLeg  -10.6867 2.91127 -5.59076
RightLeg  39.7677 9.98919 7.18544
RightFoot  -13.2995 -0.370819 -2.70712
RightToes  -28.6426 -0.134686 -0.242422
Spine  0.666784 1.57812 -3.35581
Spine1  1.16763 3.44129 -6.08005
HEad  -72.5819 -19.5493 18.0056
LeftShoulder1  -1.94126e-019 -3.10601e-018 -2.51263e-017
LeftArm  -19.0848 45.9334 -82.2283
LeftForeArm  32.1865 -18.4277 -2.59679
LeftHand  -0.540612 -4.52253 6.61747
RightShoulder  -4.96962e-017 0 -2.36833e-017
RightArm  15.234 -12.6774 76.7508
RightForeArm  54.9562 55.4974 11.7069
RightHand  -0.537078 2.93827 -7.70643
LeftUpLeg  -33.2628 -7.91961 -1.51873
LeftLeg  20.3619 -0.770937 -0.233956
LeftFoot  12.3373 0.0142412 0.0297433
LeftToes  -32.0215 1.70063e-006 7.6642e-008
